<?xml version="1.0" standalone="no"?>
<!DOCTYPE svg PUBLIC "-//W3C//DTD SVG 20010904//EN"
 "http://www.w3.org/TR/2001/REC-SVG-20010904/DTD/svg10.dtd">
<svg version="1.0" xmlns="http://www.w3.org/2000/svg"
 width="412.000000pt" height="92.000000pt" viewBox="0 0 412.000000 92.000000"
 preserveAspectRatio="xMidYMid meet">

<g transform="translate(0.000000,92.000000) scale(0.100000,-0.100000)"
fill="#000000" stroke="none">
<path d="M335 899 c-134 -9 -178 -22 -224 -68 -67 -67 -76 -112 -76 -366 0
-153 4 -234 14 -265 17 -58 90 -130 148 -148 117 -35 579 -31 652 6 88 44 125
145 125 347 1 119 -1 133 -22 167 -13 21 -38 48 -55 60 -31 22 -40 23 -339 28
-277 4 -309 7 -325 23 -14 13 -15 21 -7 35 10 15 38 17 288 20 l277 2 -7 23
c-21 68 -61 108 -122 122 -62 13 -226 20 -327 14z m465 -447 c21 -17 22 -23
14 -78 -9 -57 -10 -59 -39 -59 -26 0 -30 4 -33 30 -2 17 -8 34 -13 40 -16 17
-9 54 13 69 28 20 31 20 58 -2z"/>
<path d="M2035 741 c-117 -32 -191 -114 -202 -225 -16 -158 98 -286 257 -286
225 0 342 256 195 427 -55 65 -174 104 -250 84z m108 -125 c50 -21 79 -59 84
-110 9 -80 -29 -135 -108 -156 -52 -14 -119 14 -149 62 -29 46 -23 127 11 164
46 50 104 65 162 40z"/>
<path d="M2630 736 c-25 -7 -53 -16 -62 -21 -13 -5 -18 -3 -18 9 0 13 -12 16
-60 16 l-60 0 0 -360 0 -360 60 0 60 0 0 125 0 124 43 -19 c125 -57 279 4 338
135 25 53 25 157 0 210 -50 112 -186 175 -301 141z m139 -133 c45 -34 64 -69
64 -118 0 -140 -182 -194 -260 -76 -83 124 77 282 196 194z"/>
<path d="M3197 740 c-56 -15 -112 -46 -140 -80 -27 -31 -43 -68 -33 -77 12
-13 121 -32 124 -22 2 5 15 23 28 39 45 53 164 49 172 -6 4 -31 -13 -40 -120
-62 -125 -27 -175 -52 -195 -100 -17 -42 -13 -101 11 -137 44 -66 188 -88 279
-41 44 22 47 22 47 5 0 -16 8 -19 60 -19 l60 0 0 185 c0 198 -4 217 -52 262
-50 47 -163 72 -241 53z m168 -346 c-20 -31 -76 -54 -132 -54 -54 0 -83 14
-83 40 0 28 35 47 116 66 40 8 81 22 91 29 16 12 18 11 21 -21 2 -21 -3 -46
-13 -60z"/>
<path d="M1415 725 c-102 -38 -160 -126 -160 -240 1 -79 22 -130 77 -185 69
-70 191 -92 273 -50 22 11 41 20 42 20 8 0 1 -45 -11 -75 -36 -85 -178 -103
-254 -33 l-22 21 -38 -30 c-20 -17 -38 -37 -40 -45 -4 -19 78 -72 133 -87 22
-6 69 -11 106 -11 123 0 215 71 239 183 6 31 9 150 8 297 l-3 245 -53 3 c-47
3 -54 1 -59 -17 -5 -20 -7 -20 -37 -4 -43 22 -151 26 -201 8z m138 -109 c50
-21 79 -59 84 -110 9 -80 -29 -135 -108 -156 -33 -9 -47 -8 -84 9 -111 49
-114 199 -5 253 42 22 70 22 113 4z"/>
<path d="M3516 718 c3 -13 56 -121 115 -241 l109 -217 -55 -110 c-30 -60 -55
-114 -55 -120 0 -7 26 -10 70 -8 l71 3 169 348 c94 192 170 353 170 358 0 6
-29 9 -71 7 l-70 -3 -77 -168 c-42 -92 -79 -164 -83 -160 -4 5 -41 80 -82 168
l-75 160 -72 3 c-71 3 -72 3 -64 -20z"/>
</g>
</svg>
